<svg width="124" height="41" viewBox="0 0 124 41" xmlns="http://www.w3.org/2000/svg"><title>00FE1339-ADF2-4522-9C36-EF79946B601F</title><path d="M53.272 21.104c0 5.818-4.55 10.104-10.136 10.104C37.551 31.208 33 26.922 33 21.104 33 15.246 37.551 11 43.136 11c5.585 0 10.136 4.246 10.136 10.104zm-4.437 0c0-3.635-2.638-6.122-5.699-6.122s-5.699 2.487-5.699 6.122c0 3.6 2.638 6.123 5.7 6.123 3.06 0 5.698-2.528 5.698-6.123zm26.437 0c0 5.818-4.55 10.104-10.136 10.104C59.551 31.208 55 26.922 55 21.104 55 15.25 59.551 11 65.136 11c5.585 0 10.136 4.246 10.136 10.104zm-4.437 0c0-3.635-2.638-6.122-5.699-6.122s-5.699 2.487-5.699 6.122c0 3.6 2.638 6.123 5.7 6.123 3.06 0 5.698-2.528 5.698-6.123zM95.37 11.61v18.14c0 7.463-4.4 10.51-9.603 10.51-4.897 0-7.845-3.275-8.956-5.954l3.863-1.608c.688 1.645 2.373 3.585 5.089 3.585 3.33 0 5.393-2.054 5.393-5.922v-1.453h-.155c-.993 1.225-2.906 2.296-5.32 2.296-5.053 0-9.681-4.4-9.681-10.063C76 15.437 80.628 11 85.68 11c2.41 0 4.324 1.07 5.321 2.26h.155v-1.645h4.214v-.005zm-3.9 9.53c0-3.557-2.373-6.158-5.393-6.158-3.061 0-5.626 2.6-5.626 6.159 0 3.521 2.565 6.086 5.626 6.086 3.02 0 5.394-2.565 5.394-6.086zM102.328 1v29.611H98V1zm17.673 23.434l3.444 2.296c-1.111 1.645-3.79 4.478-8.418 4.478-5.74 0-10.027-4.437-10.027-10.104C105 15.095 109.323 11 114.53 11c5.244 0 7.808 4.173 8.647 6.428l.46 1.148-13.507 5.594c1.034 2.027 2.642 3.061 4.897 3.061 2.26 0 3.826-1.111 4.974-2.797zm-10.6-3.635l9.029-3.75c-.497-1.261-1.991-2.14-3.75-2.14-2.254 0-5.393 1.99-5.28 5.89zM15.913 18.65v-4.286h14.445c.141.747.214 1.63.214 2.587 0 3.216-.879 7.193-3.712 10.027-2.757 2.87-6.278 4.4-10.943 4.4C7.271 31.379 0 24.337 0 15.69S7.27 0 15.917 0c4.783 0 8.191 1.877 10.751 4.323l-3.025 3.025c-1.836-1.722-4.323-3.061-7.73-3.061-6.314 0-11.253 5.088-11.253 11.402 0 6.314 4.939 11.403 11.253 11.403 4.095 0 6.427-1.645 7.922-3.139 1.211-1.212 2.009-2.943 2.323-5.307l-10.245.004z" fill="#AAB2B8" fill-rule="evenodd"/></svg>