<svg width="117" height="41" viewBox="0 0 117 41" xmlns="http://www.w3.org/2000/svg"><title>E03DC8FF-CD16-4198-A4A0-22633B37FE22</title><path d="M12.84 40.898c-3.468-.136-6.306-1.072-8.524-2.81-.424-.333-1.433-1.329-1.772-1.749-.9-1.115-1.511-2.201-1.919-3.406-1.256-3.709-.61-8.575 1.848-13.917C4.577 14.444 7.824 9.91 13.49 3.627 14.323 2.703 16.809 0 16.824 0c.006 0-.13.231-.3.513-1.472 2.433-2.733 5.299-3.42 7.78-1.102 3.981-.97 7.398.39 10.047.938 1.825 2.546 3.406 4.354 4.28 3.165 1.529 7.798 1.656 13.457.37.39-.09 19.695-5.143 42.902-11.232a57615.28 57615.28 0 0 1 42.2-11.063c.006.006-53.916 22.76-81.907 34.566-4.433 1.869-5.619 2.34-7.703 3.062-5.327 1.845-10.1 2.726-13.957 2.575z" fill="#AAB2B8" fill-rule="evenodd"/></svg>