<svg width="131" height="19" viewBox="0 0 131 19" xmlns="http://www.w3.org/2000/svg"><title>FF99C80A-85C1-41FD-B95B-639FB5C0982E</title><path d="M4.755.001C1.585.001.578.029.578.029.093.03 0 .155 0 .608v17.37c0 .475.108.58.578.58h3.627c.49 0 .578-.128.578-.58V4.359s5.984 9.41 7.999 12.573c1.02 1.602 1.191 1.624 4.124 1.627h4.92c.479 0 .578-.104.578-.58V.608c0-.459-.08-.58-.578-.58h-3.629c-.48 0-.576.122-.576.58v13.814S10.345 3.067 9.4 1.599C8.307-.096 7.923 0 4.756 0zm108.223 0c-3.164 0-4.178.028-4.178.028-.484.002-.578.126-.578.579v17.37c.002.475.11.58.578.58h3.628c.49 0 .577-.128.577-.58V4.359s5.983 9.41 8 12.573c1.02 1.602 1.21 1.624 4.15 1.627h4.893c.48 0 .577-.104.577-.58V.608c0-.459-.08-.58-.577-.58h-3.628c-.481 0-.578.122-.578.58v13.814s-7.27-11.355-8.219-12.823C116.531-.096 116.15 0 112.978 0zM27.296.029c-.35 0-.44.166-.44.469V17.98c0 .483.092.579.577.579h4.206c.47 0 .577-.127.577-.58V.526c0-.342-.12-.496-.495-.496h-4.425zm15.256 0c-3.416 0-5.333 1.245-5.855 3.833-.118.581-.138 1.292-.138 1.792 0 .605.017 1.23.083 1.71.203 1.483 1.124 3.222 5.058 3.612 3.126.31 7.615.696 9.126.827.682.059.81.561.852.855.017.11.028.273.028.496 0 .197-.004.402-.028.69-.035.41-.233.607-.77.607h-13.69c-.479 0-.576.109-.577.579v2.922c0 .477.117.58.578.58h13.524c3.352 0 5.542-.554 6.13-3.474.126-.618.137-1.423.137-1.986 0-.875-.054-1.665-.11-1.958-.604-3.06-2.889-3.647-6.157-3.97-1.744-.173-6.52-.63-8.082-.773-.57-.055-.723-.398-.769-.772a3.233 3.233 0 0 1-.027-.414c0-.17.014-.258.027-.386.05-.524.32-.745.88-.745H55.69c.47.003.577-.07.577-.552V.552c0-.444-.126-.523-.577-.523H42.552zm23.75 0c-3.418 0-5.334 1.245-5.856 3.833-.118.581-.137 1.292-.137 1.792 0 .605.017 1.23.082 1.71.207 1.483 1.098 3.222 5.03 3.612 3.125.31 7.644.696 9.154.827.68.059.807.561.852.855.015.11.027.273.027.496 0 .197-.003.402-.027.69-.037.41-.233.607-.77.607H60.968c-.481 0-.576.109-.577.579v2.922c-.002.477.088.58.55.58h13.552c3.35 0 5.538-.554 6.13-3.474.122-.618.137-1.423.137-1.986 0-.875-.05-1.665-.11-1.958-.604-3.06-2.892-3.647-6.157-3.97-1.748-.173-6.517-.63-8.082-.773-.57-.055-.75-.398-.797-.772-.016-.168 0-.302 0-.414 0-.17-.007-.258 0-.386.055-.524.337-.745.907-.745H79.44c.467.003.577-.07.577-.552V.552c0-.444-.129-.523-.577-.523H66.302zm27.708 0c-.893-.002-1.107.015-1.787.027-2.805.05-2.365-.154-3.326 1.875 0-.002-4.833 11.021-6.926 15.607l-.084.193c-.39.778-.126.829.496.827l4.397-.027c.278 0 .451-.148.523-.303 0 0 .605-1.451 1.43-3.392h10.61a390.1 390.1 0 0 0 1.43 3.364.563.563 0 0 0 .522.359h4.508c.67 0 .806.083.55-.524-.801-1.91-6.012-13.36-6.762-15.11-1.35-3.13-.84-2.765-3.821-2.869-.273-.01-.87-.028-1.759-.028zm.083 4.08c.215 0 .444.019.522.028.19.027.363.1.44.303.338.918 1.491 3.69 2.667 6.508h-7.367c1.377-3.283 2.712-6.45 2.748-6.535.08-.182.224-.25.44-.276.097-.008.32-.028.55-.028z" fill="#AAB2B8" fill-rule="evenodd"/></svg>