<svg width="120" height="33" viewBox="0 0 120 33" xmlns="http://www.w3.org/2000/svg"><title>076D79D0-1888-4599-BF55-288DB5F685C9</title><path d="M102 30.13c1.658.16 3.314.332 4.967.51l3.649-8.979 3.469 9.807c1.78.223 3.558.456 5.332.7l-6.08-17.199L119.42 0h-5.152l-.053.073-3.286 8.087L108.044 0h-5.086l5.252 14.85L102 30.13zm-3.915-.352V0H93v29.36c1.697.13 3.393.271 5.085.418m-38.092-1.665c1.373 0 2.743.01 4.112.022v-10.94h6.109v-4.66h-6.109v-7.87h7.035V0H59v28.117c.33 0 .661-.004.993-.004m-16.24.285c1.694-.06 3.39-.111 5.088-.153V4.664h4.752V0H39v4.664h4.753v23.734zM4.878 31.537V13.796l6.02 17.025c1.852-.208 3.707-.403 5.565-.586V0h-4.878v18.377L5.088 0H0v32.175h.03c1.613-.223 3.23-.434 4.848-.638M34.141 4.664V0H22v29.731c4.03-.347 8.072-.638 12.131-.874v-4.668a431.41 431.41 0 0 0-7.026.466v-7.459h6.109v-4.661h-6.109V4.664h7.036zm46.966 19.302V0H76v28.415c4.062.149 8.109.356 12.141.616v-4.67c-2.34-.15-4.685-.281-7.034-.395" fill="#AAB2B8" fill-rule="evenodd"/></svg>