<svg width="54" height="60" viewBox="0 0 54 60" xmlns="http://www.w3.org/2000/svg"><title>27CBB196-B1BD-4B57-951C-42E2B5D09ED6</title><path d="M49.53 2.888h.367c.453 0 .823-.149.823-.54 0-.295-.219-.568-.794-.568-.18 0-.302 0-.397.013v1.095zm0 1.902h-.616V1.416c.286-.04.573-.095 1.025-.095.548 0 .889.11 1.108.273.19.148.3.375.3.7 0 .432-.287.714-.655.81v.025c.299.055.49.324.559.825.081.527.15.727.206.836h-.63c-.08-.11-.151-.419-.22-.861-.067-.408-.298-.57-.723-.57h-.355V4.79zm.56-4.278c-1.354 0-2.448 1.12-2.448 2.524 0 1.403 1.094 2.523 2.46 2.523 1.354.015 2.436-1.12 2.436-2.523 0-1.404-1.082-2.524-2.435-2.524h-.013zM50.103 0a3.027 3.027 0 0 1 3.047 3.023c0 1.7-1.354 3.048-3.06 3.048-1.708 0-3.09-1.348-3.09-3.048C47 1.35 48.382 0 50.09 0h.013zM6.523 53.574l-.514-3.002c-.147-.866-.334-2.218-.477-3.155h-.055c-.15.944-.36 2.335-.514 3.162l-.553 2.995h2.113zm-2.389 1.957l-.667 3.332H1L4.077 45H7.1l2.794 13.863H7.415l-.653-3.332H4.134zm10.886-2.493c0-.184 0-.4-.037-.598-.098-.685-.467-1.301-1.061-1.301-1.018 0-1.393 1.447-1.393 3.14 0 1.945.534 3.052 1.358 3.052.376 0 .81-.19 1.046-1.007.057-.162.087-.38.087-.634v-2.652zM17.552 45v11.356c0 .9.046 2.007.083 2.873H15.45l-.143-1.155h-.052c-.367.712-1.166 1.317-2.122 1.317-2.094 0-3.132-2.28-3.132-5.158 0-3.508 1.548-5.213 3.236-5.213.883 0 1.454.426 1.742 1.043h.042V45h2.532zm5.293 12.456c.966 0 1.205-1.797 1.205-3.285 0-1.414-.24-3.257-1.248-3.257-1.068 0-1.293 1.843-1.293 3.257 0 1.707.282 3.285 1.313 3.285h.023zm-.049 1.915c-2.333 0-3.796-1.848-3.796-5.156C19 50.605 20.879 49 22.856 49c2.301 0 3.744 1.938 3.744 5.157 0 4.135-2.26 5.214-3.783 5.214h-.02zm7.821-3.729c0 .25.046.485.1.642.254.84.685 1.047 1.03 1.047.979 0 1.374-1.224 1.374-3.182 0-1.783-.418-3.01-1.386-3.01-.48 0-.884.514-1.024 1.067a2.738 2.738 0 0 0-.094.63v2.806zM28.085 45h2.532v5.233h.04c.5-.772 1.163-1.213 2.128-1.213 1.908 0 2.867 2.14 2.867 4.94 0 3.538-1.43 5.431-3.283 5.431-.883 0-1.47-.386-2.001-1.365h-.054l-.14 1.203H28a70.32 70.32 0 0 0 .085-2.873V45zm13.932 8.245c.013-1.41-.406-2.399-1.21-2.399-.915 0-1.305 1.323-1.333 2.4h2.543zm-2.552 1.766c.03 1.817.998 2.408 2.2 2.408.762 0 1.415-.166 1.897-.345l.341 1.796c-.671.286-1.708.465-2.702.465-2.717 0-4.201-1.832-4.201-4.96C37 51.016 38.721 49 40.969 49c2.172 0 3.375 1.782 3.375 4.692 0 .666-.028 1.04-.072 1.333l-4.807-.014zM28 0h16.194v38.252zM16.204 0H0v38.252zm5.879 14L32.4 38.155h-6.76l-3.086-7.694H15z" fill="#AAB2B8" fill-rule="evenodd"/></svg>