<?xml version="1.0" standalone="no"?>
<!DOCTYPE svg PUBLIC "-//W3C//DTD SVG 20010904//EN"
 "http://www.w3.org/TR/2001/REC-SVG-20010904/DTD/svg10.dtd">
<svg version="1.0" xmlns="http://www.w3.org/2000/svg"
 width="16.000000pt" height="16.000000pt" viewBox="0 0 16.000000 16.000000"
 preserveAspectRatio="xMidYMid meet">
<metadata>
Created by potrace 1.11, written by Peter Selinger 2001-2013
</metadata>
<g transform="translate(0.000000,16.000000) scale(0.010458,-0.010458)"
fill="#000000" stroke="none">
<path d="M1140 1380 c0 -14 7 -20 24 -20 13 0 26 -6 28 -12 2 -7 3 -68 3 -135
-1 -97 1 -123 13 -128 7 -3 18 -3 23 1 5 3 9 66 9 140 l0 134 31 0 c24 0 30 4
27 18 -3 14 -16 17 -81 20 -72 3 -77 1 -77 -18z"/>
<path d="M1319 1363 c-3 -133 -1 -264 5 -270 14 -14 36 -11 37 5 0 10 1 62 1
117 l0 100 14 -75 c24 -126 34 -158 52 -156 8 2 16 11 18 20 28 189 43 226 40
99 -2 -108 0 -119 24 -118 13 0 15 26 18 158 l3 157 -31 0 c-16 0 -30 -1 -31
-2 0 -2 -10 -55 -22 -118 l-23 -115 -17 95 c-10 52 -20 105 -23 118 -3 17 -11
22 -34 22 -28 0 -30 -3 -31 -37z"/>
<path d="M0 857 l0 -535 178 2 c154 2 183 5 222 23 109 49 161 129 168 259 7
136 -38 224 -139 269 l-40 18 48 25 c82 41 113 92 115 191 2 86 -19 148 -67
197 -65 64 -111 76 -312 82 l-173 4 0 -535z m345 394 c53 -23 68 -49 70 -121
3 -73 -9 -111 -46 -148 -36 -35 -81 -48 -159 -48 l-55 1 -2 164 c-1 90 0 168
2 172 9 14 146 0 190 -20z m-3 -458 c54 -31 73 -76 73 -168 -1 -135 -53 -185
-193 -185 l-71 0 1 191 0 191 79 -5 c51 -3 90 -11 111 -24z"/>
<path d="M644 1078 c-3 -4 14 -85 36 -180 23 -95 55 -229 71 -298 51 -214 59
-258 50 -282 -13 -34 -42 -57 -87 -66 l-39 -8 0 -54 0 -55 35 -1 c46 0 120 19
159 42 16 10 39 36 51 58 15 31 164 629 194 781 2 11 7 31 11 45 6 26 6 26
-64 25 -38 0 -74 -4 -79 -10 -5 -5 -17 -57 -27 -115 -18 -112 -22 -131 -30
-170 -3 -14 -13 -69 -22 -123 -9 -53 -18 -96 -20 -93 -2 2 -12 52 -23 112 -10
60 -30 172 -44 249 -14 77 -26 142 -26 145 0 9 -141 7 -146 -2z"/>
</g>
</svg>
