<svg
   xmlns:dc="http://purl.org/dc/elements/1.1/"
   xmlns:cc="http://creativecommons.org/ns#"
   xmlns:rdf="http://www.w3.org/1999/02/22-rdf-syntax-ns#"
   xmlns:svg="http://www.w3.org/2000/svg"
   xmlns="http://www.w3.org/2000/svg"
   version="1.2"
   width="347px"
   height="127px"
   viewBox="0 0 347 127">
  <g transform="translate(-68,-40)" >
    <g transform="translate(38,-11)">
      <path d="m 87.53125,129.61829 c -6.5e-5,9.41213 -2.730368,16.84849 -8.190918,22.30908 -5.460663,5.46062 -12.897016,8.19092 -22.309082,8.19092 l -26.6875,0 0,-106.749998 22.875,0 c 4.924444,1.07e-4 9.332642,0.516382 13.224609,1.548828 3.89188,1.032656 7.297313,2.60134 10.216309,4.706055 2.918888,2.104916 5.162701,4.884861 6.731445,8.339843 1.568623,3.455167 2.352965,7.486088 2.353028,12.092774 -6.3e-5,6.671948 -1.409893,11.745348 -4.229493,15.220215 -2.819717,3.474996 -7.168345,6.026593 -13.045898,7.654783 6.354115,2.10487 11.119735,5.1926 14.296875,9.26319 3.17702,4.07068 4.76556,9.87878 4.765625,17.42431 z m -19.836914,14.50537 c 3.057895,-3.03806 4.586864,-7.87318 4.586914,-14.50537 -5e-5,-6.63212 -1.529019,-11.46724 -4.586914,-14.50537 -3.057985,-3.03804 -7.883175,-4.55708 -14.475586,-4.55713 l -7.625,0 0,38.125 7.625,0 c 6.592411,1e-5 11.417601,-1.51903 14.475586,-4.55713 z M 53.21875,99.118292 c 12.70829,6.1e-5 19.06245,-6.354099 19.0625,-19.0625 -5e-5,-2.104736 -0.258187,-3.961342 -0.774414,-5.569824 -0.516324,-1.608312 -1.131884,-2.948642 -1.84668,-4.020996 -0.71489,-1.072175 -1.797083,-1.975657 -3.246582,-2.71045 -1.449586,-0.734607 -2.77006,-1.300524 -3.961426,-1.697754 -1.191444,-0.397041 -2.889197,-0.684963 -5.093261,-0.863769 -2.204134,-0.178616 -4.040884,-0.287828 -5.510254,-0.327637 -1.469429,-0.03962 -3.554388,-0.05948 -6.254883,-0.05957 l 0,34.3125 z" />
      <path d="m 153.76164,121.99329 c -7e-5,4.8848 -0.29792,9.26321 -0.89355,13.13526 -0.59577,3.87209 -1.60847,7.47609 -3.03809,10.81201 -1.42975,3.33595 -3.28635,6.10596 -5.56982,8.31006 -2.28359,2.2041 -5.1926,3.92171 -8.72705,5.15283 -3.53455,1.23112 -7.62505,1.84668 -12.27149,1.84668 -4.64651,0 -8.73701,-0.61556 -12.27148,-1.84668 -3.53453,-1.23112 -6.44354,-2.94873 -8.72705,-5.15283 -2.283545,-2.2041 -4.140152,-4.97411 -5.569827,-8.31006 -1.429697,-3.33592 -2.442391,-6.93992 -3.038086,-10.81201 -0.59571,-3.87205 -0.893561,-8.25046 -0.893555,-13.13526 l 0,-68.624998 15.249998,0 0,68.624998 c -2e-5,3.29626 0.0695,6.05635 0.2085,8.28028 0.13897,2.22398 0.50632,4.59686 1.10205,7.11865 0.59568,2.52183 1.41973,4.53729 2.47217,6.04638 1.05238,1.50913 2.54164,2.76011 4.46777,3.75293 1.92608,0.99285 4.25924,1.48927 6.99951,1.48926 2.7402,1e-5 5.07337,-0.49641 6.99951,-1.48926 1.92606,-0.99282 3.41532,-2.2438 4.46778,-3.75293 1.05236,-1.50909 1.87641,-3.52455 2.47217,-6.04638 0.59565,-2.52179 0.963,-4.89467 1.10205,-7.11865 0.13894,-2.22393 0.20844,-4.98402 0.20849,-8.28028 l 0,-68.624998 15.25,0 z" />
      <path d="m 164.4725,53.368292 15.25,0 0,106.749998 -15.25,0 z" />
      <path d="m 191.74391,160.11829 0,-106.749998 15.25,0 0,95.312498 26.6875,0 0,11.4375 z" />
      <path style="fill:#ff7f2a" d="m 236.40985,83.868292 15.25,0 0,76.249998 -15.25,0 z m 0,-26.6875 15.25,0 0,15.25 -15.25,0 z" />
      <path style="fill:#ff7f2a" d="m 265.23009,80.949347 c -1e-5,-3.216715 0.11913,-5.947018 0.35742,-8.190918 0.23827,-2.243726 0.72476,-4.408112 1.45947,-6.493164 0.73469,-2.084865 1.72753,-3.752833 2.97852,-5.003907 1.25096,-1.250876 2.91892,-2.243714 5.0039,-2.978515 2.08494,-0.734598 4.57696,-1.101948 7.47608,-1.102051 2.46221,1.03e-4 5.59957,0.238384 9.41211,0.714844 l 0,11.318359 c -0.39717,-0.03962 -1.2113,-0.148835 -2.44239,-0.327637 -1.23115,-0.178619 -2.1247,-0.267975 -2.68066,-0.268066 -2.5417,9.1e-5 -4.22952,0.80429 -5.06348,2.412598 -0.83401,1.608485 -1.251,3.981367 -1.25097,7.118652 l 0,5.71875 11.4375,0 0,11.4375 -11.4375,0 0,64.812498 -15.25,0 0,-64.812498 -7.625,0 0,-11.4375 7.625,0 z" />
      <path style="fill:#ff7f2a" d="m 291.78665,167.74329 c 4.1302,-1e-5 7.40657,-0.91342 9.8291,-2.74023 2.42251,-1.82683 3.63377,-4.60677 3.63379,-8.33985 l -17.27539,-72.794918 15.25,0 c 5.9173,32.684288 9.11423,50.475938 9.59082,53.374998 0.83396,-5.3613 1.77716,-11.01054 2.82959,-16.94775 1.05238,-5.93713 2.24379,-12.48986 3.57422,-19.65821 1.33037,-7.168223 2.35299,-12.757898 3.06787,-16.769038 l 15.25,0 -19.0625,80.062498 c -1.31058,5.63932 -4.14016,9.59081 -8.48877,11.85449 -4.34865,2.26366 -10.41489,3.39549 -18.19873,3.39551 z" />
    </g>
    <g transform="translate(-31,4)">
      <path d="m 423.02344,37.224967 0,4.007813 -5.625,0 0,27.492187 -4.5,0 0,-27.492187 -5.625,0 0,-4.007813 z" />
      <path d="m 434.20312,68.724967 -4.5,-24.855468 0,24.855468 -4.5,0 0,-31.5 6.22266,0 4.46484,24.117188 4.46485,-24.117188 6.22265,0 0,31.5 -4.5,0 0,-24.855468 -4.5,24.855468 z" />
    </g>
  </g>
</svg>
