<?xml version="1.0" standalone="no"?>
<!DOCTYPE svg PUBLIC "-//W3C//DTD SVG 20010904//EN"
 "http://www.w3.org/TR/2001/REC-SVG-20010904/DTD/svg10.dtd">
<svg version="1.0" xmlns="http://www.w3.org/2000/svg"
 width="250.000000pt" height="250.000000pt" viewBox="0 0 250.000000 250.000000"
 preserveAspectRatio="xMidYMid meet">
<metadata>
Created by potrace 1.11, written by Peter Selinger 2001-2013
</metadata>
<g transform="translate(0.000000,250.000000) scale(0.100000,-0.100000)"
fill="#000000" stroke="none">
<path d="M124 2181 c-2 -2 -4 -382 -4 -843 l0 -839 247 1 c136 1 270 6 298 11
176 33 312 173 346 354 17 89 6 238 -21 310 -30 77 -112 161 -192 195 -53 23
-73 40 -47 40 29 0 126 60 163 102 57 62 78 135 75 261 -2 109 -25 183 -79
251 -63 79 -186 138 -322 152 -69 7 -457 11 -464 5z m512 -207 c94 -30 134
-88 140 -204 7 -134 -47 -236 -148 -280 -43 -19 -72 -23 -158 -24 l-105 -1 -3
269 -2 269 112 -6 c62 -3 136 -13 164 -23z m9 -726 c61 -31 78 -49 107 -113
18 -42 22 -68 22 -155 0 -91 -3 -112 -25 -160 -27 -58 -76 -101 -140 -121 -19
-6 -82 -13 -141 -14 l-108 -3 0 300 0 301 118 -5 c100 -4 124 -9 167 -30z"/>
<path d="M1822 2153 c3 -24 8 -27 38 -28 l35 0 0 -183 0 -183 30 3 30 3 0 180
0 180 38 3 c32 3 37 7 37 28 0 24 0 24 -106 24 l-105 0 3 -27z"/>
<path d="M2087 2173 c-2 -5 -3 -98 -3 -208 l1 -200 30 0 30 0 -1 152 c0 84 1
152 2 150 2 -2 15 -66 29 -142 14 -77 27 -146 30 -152 4 -12 45 -19 45 -9 0 3
7 36 14 73 8 38 18 89 21 114 17 120 23 110 24 -38 l1 -153 30 0 30 0 0 210 0
210 -43 0 c-36 0 -43 -3 -44 -20 -1 -11 -9 -55 -17 -98 -9 -42 -18 -95 -22
-116 -12 -82 -21 -84 -33 -11 -6 39 -13 77 -15 85 -1 8 -7 40 -11 70 -5 30
-10 58 -11 63 -1 4 -2 12 -3 17 -1 12 -78 14 -84 3z"/>
<path d="M1194 1702 c-21 -3 -21 -4 13 -140 37 -153 142 -594 149 -630 3 -13
18 -78 35 -145 16 -67 31 -133 34 -147 3 -14 9 -38 13 -55 30 -105 -55 -197
-189 -204 -13 -1 -15 -16 -14 -88 l1 -88 77 2 c103 2 202 32 253 77 39 34 81
104 90 148 2 13 24 109 49 213 25 105 55 230 66 279 11 49 22 92 24 96 2 3 11
40 20 81 23 107 24 109 30 129 3 10 7 27 10 37 5 28 52 228 78 336 16 64 20
97 13 98 -46 4 -219 3 -225 -1 -6 -4 -23 -78 -46 -210 -3 -14 -21 -113 -41
-220 -19 -107 -37 -208 -39 -225 -2 -16 -10 -59 -16 -95 -11 -57 -13 -62 -20
-37 -4 15 -10 49 -14 74 -3 26 -8 49 -10 53 -2 3 -6 26 -9 51 -3 24 -8 53 -10
64 -10 50 -37 200 -56 305 -11 63 -22 125 -24 136 -2 12 -7 39 -10 60 -4 21
-8 40 -11 42 -4 5 -191 8 -221 4z"/>
</g>
</svg>
